<?xml version="1.0" encoding="UTF-8" standalone="no"?>
<!-- Created with Inkscape (http://www.inkscape.org/) -->

<svg
   xmlns:dc="http://purl.org/dc/elements/1.1/"
   xmlns:cc="http://creativecommons.org/ns#"
   xmlns:rdf="http://www.w3.org/1999/02/22-rdf-syntax-ns#"
   xmlns:svg="http://www.w3.org/2000/svg"
   xmlns="http://www.w3.org/2000/svg"
   xmlns:sodipodi="http://sodipodi.sourceforge.net/DTD/sodipodi-0.dtd"
   xmlns:inkscape="http://www.inkscape.org/namespaces/inkscape"
   width="1000"
   height="1000"
   id="svg2985"
   version="1.1"
   inkscape:version="0.48.3.1 r9886"
   sodipodi:docname="a.svg">
  <defs
     id="defs5498" />
  <sodipodi:namedview
     inkscape:window-height="1007"
     inkscape:window-width="1920"
     inkscape:pageshadow="2"
     inkscape:pageopacity="0.0"
     borderopacity="1.0"
     bordercolor="#666666"
     pagecolor="#ffffff"
     id="base"
     showgrid="false"
     showguides="true"
     inkscape:guide-bbox="true"
     inkscape:zoom="0.64205296"
     inkscape:cx="-57.295343"
     inkscape:cy="522.47154"
     inkscape:window-x="0"
     inkscape:window-y="25"
     inkscape:current-layer="layer2"
     inkscape:window-maximized="1">
    <sodipodi:guide
       orientation="horizontal"
       position="200"
       id="guide5596" />
  </sodipodi:namedview>
  <metadata
     id="metadata5594">
    <rdf:RDF>
      <cc:Work
         rdf:about="">
        <dc:format>image/svg+xml</dc:format>
        <dc:type
           rdf:resource="http://purl.org/dc/dcmitype/StillImage" />
        <dc:title />
      </cc:Work>
    </rdf:RDF>
  </metadata>
  <g
     inkscape:groupmode="layer"
     id="layer2"
     inkscape:label="wektory">
    <path
       style="fill:none;stroke:#000000;stroke-width:1px;stroke-linecap:butt;stroke-linejoin:miter;stroke-opacity:1"
       d="m 347.90308,534.14097 c -2.28282,-92.16226 74.12398,-255.76853 157.60353,-273.12775 56.1674,-8.81058 94.71365,-1.10133 107.92951,19.82378 13.21586,20.92511 33.03965,-18.72246 33.03965,-18.72246 l 78.19383,0 23.53304,29.93832 c -73.53377,-11.31289 -106.20735,227.51555 -104.13216,308.05287 2.4134,93.6629 93.92324,-15.95351 110.33481,-114.42291 21.84759,48.55021 4.88519,176.42132 -81.4978,207.04846 -86.1611,30.54847 -98.01762,-81.4978 -98.01762,-81.4978 0,0 -58.75273,76.6021 -110.13216,83.70044 -51.43622,7.10619 -110.89757,-31.07043 -116.85463,-160.79295 z"
       id="path3004"
       inkscape:connector-curvature="0"
       sodipodi:nodetypes="ccscccscscsc" />
    <path
       style="fill:none;stroke:#000000;stroke-width:1px;stroke-linecap:butt;stroke-linejoin:miter;stroke-opacity:1"
       d="m 451.65639,648.67841 c -54.83597,-2.60258 -41.85022,-110.13215 -41.85022,-110.13215 21.67505,-142.35897 63.50955,-198.23789 103.52423,-234.5815 28.58167,-20.08551 55.01735,-20.1986 64.1674,10.89868 24.87935,114.18506 3.42768,303.46543 -125.84141,333.81497 z"
       id="path3006"
       inkscape:connector-curvature="0"
       sodipodi:nodetypes="ccccc" />
  </g>
</svg>
