<?xml version="1.0" encoding="UTF-8" standalone="no"?>
<!-- Created with Inkscape (http://www.inkscape.org/) -->

<svg
   xmlns:dc="http://purl.org/dc/elements/1.1/"
   xmlns:cc="http://creativecommons.org/ns#"
   xmlns:rdf="http://www.w3.org/1999/02/22-rdf-syntax-ns#"
   xmlns:svg="http://www.w3.org/2000/svg"
   xmlns="http://www.w3.org/2000/svg"
   xmlns:sodipodi="http://sodipodi.sourceforge.net/DTD/sodipodi-0.dtd"
   xmlns:inkscape="http://www.inkscape.org/namespaces/inkscape"
   width="1000"
   height="1000"
   id="svg3113"
   version="1.1"
   inkscape:version="0.48.3.1 r9886"
   sodipodi:docname="b_miekkie.svg">
  <defs
     id="defs5498" />
  <sodipodi:namedview
     inkscape:window-height="1007"
     inkscape:window-width="1920"
     inkscape:pageshadow="2"
     inkscape:pageopacity="0.0"
     borderopacity="1.0"
     bordercolor="#666666"
     pagecolor="#ffffff"
     id="base"
     showgrid="false"
     showguides="true"
     inkscape:guide-bbox="true"
     inkscape:zoom="0.64205296"
     inkscape:cx="717.89216"
     inkscape:cy="428.76149"
     inkscape:window-x="0"
     inkscape:window-y="25"
     inkscape:current-layer="layer5"
     inkscape:window-maximized="1">
    <sodipodi:guide
       orientation="horizontal"
       position="200"
       id="guide5596" />
  </sodipodi:namedview>
  <metadata
     id="metadata5594">
    <rdf:RDF>
      <cc:Work
         rdf:about="">
        <dc:format>image/svg+xml</dc:format>
        <dc:type
           rdf:resource="http://purl.org/dc/dcmitype/StillImage" />
        <dc:title />
      </cc:Work>
    </rdf:RDF>
  </metadata>
  <g
     inkscape:groupmode="layer"
     id="layer5"
     inkscape:label="svg">
    <path
       style="fill:none;stroke:#000000;stroke-width:1px;stroke-linecap:butt;stroke-linejoin:miter;stroke-opacity:1"
       d="m 543.96476,441.02203 c 43.02397,29.82229 28.05275,90.53847 -1.03004,132.17871 -29.08279,41.64025 -75.99404,68.95661 -108.0008,46.23538 -36.93895,-26.22253 -26.66556,-78.93461 1.33473,-121.03678 28.00029,-42.10217 76.76006,-78.8208 107.69611,-57.37731 z"
       id="path3132"
       inkscape:connector-curvature="0"
       sodipodi:nodetypes="sssss" />
    <path
       style="fill:none;stroke:#000000;stroke-width:1px;stroke-linecap:butt;stroke-linejoin:miter;stroke-opacity:1"
       d="m 481.27753,390.96916 c 48.03276,-8.09341 102.87714,-23.27627 128.85463,13.21586 82.13038,115.37348 -14.88722,226.26703 -69.47137,261.64758 -76.35035,49.48905 -184.75772,20.08635 -193.74449,-62.30837 1.79073,-54.42499 25.57671,-117.4868 36.8666,-155.0535 -44.18834,9.97744 -90.74792,21.25576 -97.43928,5.27376 42.3525,-10.92498 89.22542,-35.3644 112.33479,-60.57269 12.0594,-92.30059 34.27937,-138.89873 60.57269,-174.0088 19.76107,-26.38742 48.42598,-28.06245 80.39648,-27.53304 31.9705,0.52941 46.77372,24.71557 47.55947,55.15418 0.78575,30.43861 -8.16935,42.71617 -35.93551,71.19816 -27.76616,28.48199 -45.01258,50.25793 -69.99401,72.98686 z"
       id="path3134"
       inkscape:connector-curvature="0"
       sodipodi:nodetypes="cssccccszzzc" />
    <path
       style="fill:none;stroke:#000000;stroke-width:1px;stroke-linecap:butt;stroke-linejoin:miter;stroke-opacity:1"
       d="m 477.69112,319.33331 c 12.39012,-9.21421 36.81733,-27.02901 40.65249,-49.91481 -1.00083,-14.78478 -6.68992,-19.35927 -21.53304,-11.21586 -4.69971,4.02545 -21.61401,39.64384 -19.11945,61.13067 z"
       id="path3136"
       inkscape:connector-curvature="0"
       sodipodi:nodetypes="cccc" />
  </g>
</svg>
