<?xml version="1.0" encoding="UTF-8" standalone="no"?>
<!-- Created with Inkscape (http://www.inkscape.org/) -->

<svg
   xmlns:dc="http://purl.org/dc/elements/1.1/"
   xmlns:cc="http://creativecommons.org/ns#"
   xmlns:rdf="http://www.w3.org/1999/02/22-rdf-syntax-ns#"
   xmlns:svg="http://www.w3.org/2000/svg"
   xmlns="http://www.w3.org/2000/svg"
   xmlns:sodipodi="http://sodipodi.sourceforge.net/DTD/sodipodi-0.dtd"
   xmlns:inkscape="http://www.inkscape.org/namespaces/inkscape"
   width="1000"
   height="1000"
   id="svg2984"
   version="1.1"
   inkscape:version="0.48.3.1 r9886"
   sodipodi:docname="d.svg">
  <defs
     id="defs5498" />
  <sodipodi:namedview
     inkscape:window-height="1121"
     inkscape:window-width="1920"
     inkscape:pageshadow="2"
     inkscape:pageopacity="0.0"
     borderopacity="1.0"
     bordercolor="#666666"
     pagecolor="#ffffff"
     id="base"
     showgrid="false"
     showguides="true"
     inkscape:guide-bbox="true"
     inkscape:zoom="1.2841059"
     inkscape:cx="492.04313"
     inkscape:cy="455.15428"
     inkscape:window-x="0"
     inkscape:window-y="25"
     inkscape:current-layer="layer2"
     inkscape:window-maximized="1">
    <sodipodi:guide
       orientation="horizontal"
       position="200"
       id="guide5596" />
    <sodipodi:guide
       orientation="0.97029953,-0.24190663"
       position="737.47811,784.20323"
       id="guide3024" />
  </sodipodi:namedview>
  <metadata
     id="metadata5594">
    <rdf:RDF>
      <cc:Work
         rdf:about="">
        <dc:format>image/svg+xml</dc:format>
        <dc:type
           rdf:resource="http://purl.org/dc/dcmitype/StillImage" />
        <dc:title></dc:title>
      </cc:Work>
    </rdf:RDF>
  </metadata>
  <g
     inkscape:groupmode="layer"
     id="layer2"
     inkscape:label="svg">
    <path
       style="fill:none;stroke:#000000;stroke-width:1px;stroke-linecap:butt;stroke-linejoin:miter;stroke-opacity:1"
       d="m 505.50661,348.01762 c 2.05507,-17.0345 21.16872,-19.86619 37.44493,-19.82379 12.28529,0.032 24.60685,5.49595 30.83701,14.31718 l 133.25991,-0.69603 0,17.21586 c -14.97097,-1.04421 -16.04313,3.2563 -17.62115,13.21586 l -91.50349,363.395 c 3.25,12.43034 10.77389,23.31252 24.72372,17.52865 38.64798,-16.02418 36.36053,-61.54712 57.51302,-90.89817 C 696.26937,725.96456 666.8356,800 609.03084,800 581.87857,800 558.12223,761.99372 540.59207,737.52682 530.20751,767.04943 492.97416,800 446.03524,800 c -58.51842,0 -88.55968,-72.47041 -83.70044,-135.90308 7.29081,-95.17452 87.8248,-181.34408 154.45225,-184.10966 35.38441,-1.46874 63.64627,12.74007 73.06565,59.95274 l 41.64313,-167.03267 c 0.90429,-13.32026 -11.80844,-12.66673 -19.16103,-14.97781 -54.17526,1.42551 -84.04727,-8.38919 -82.59912,15.4185 -14.44202,-0.63657 -23.29074,-9.4147 -24.22907,-25.3304 z"
       id="path3022"
       inkscape:connector-curvature="0"
       sodipodi:nodetypes="cscccccscscsssccccc" />
    <path
       style="fill:none;stroke:#000000;stroke-width:1px;stroke-linecap:butt;stroke-linejoin:miter;stroke-opacity:1"
       d="m 465.69368,771.15317 c 29.88692,2.48882 64.76486,-38.70565 83.32645,-111.46777 22.47732,-88.11195 26.30013,-159.61806 -21.0263,-158.08666 -32.72888,1.05905 -69.09524,55.29575 -81.4327,149.29036 -12.78346,97.39256 1.30378,118.77939 19.13255,120.26407 z"
       id="path3028"
       inkscape:connector-curvature="0"
       sodipodi:nodetypes="sssss" />
  </g>
</svg>
