<?xml version="1.0" encoding="UTF-8" standalone="no"?>
<!-- Created with Inkscape (http://www.inkscape.org/) -->

<svg
   xmlns:dc="http://purl.org/dc/elements/1.1/"
   xmlns:cc="http://creativecommons.org/ns#"
   xmlns:rdf="http://www.w3.org/1999/02/22-rdf-syntax-ns#"
   xmlns:svg="http://www.w3.org/2000/svg"
   xmlns="http://www.w3.org/2000/svg"
   xmlns:sodipodi="http://sodipodi.sourceforge.net/DTD/sodipodi-0.dtd"
   xmlns:inkscape="http://www.inkscape.org/namespaces/inkscape"
   width="1000"
   height="1000"
   id="svg3120"
   version="1.1"
   inkscape:version="0.48.3.1 r9886"
   sodipodi:docname="g.svg">
  <defs
     id="defs5498" />
  <sodipodi:namedview
     inkscape:window-height="1121"
     inkscape:window-width="1920"
     inkscape:pageshadow="2"
     inkscape:pageopacity="0.0"
     borderopacity="1.0"
     bordercolor="#666666"
     pagecolor="#ffffff"
     id="base"
     showgrid="false"
     showguides="true"
     inkscape:guide-bbox="true"
     inkscape:zoom="1.2841059"
     inkscape:cx="544.23994"
     inkscape:cy="574.35261"
     inkscape:window-x="0"
     inkscape:window-y="25"
     inkscape:current-layer="layer5"
     inkscape:window-maximized="1">
    <sodipodi:guide
       orientation="horizontal"
       position="200"
       id="guide5596" />
    <inkscape:grid
       type="xygrid"
       id="grid3143" />
  </sodipodi:namedview>
  <metadata
     id="metadata5594">
    <rdf:RDF>
      <cc:Work
         rdf:about="">
        <dc:format>image/svg+xml</dc:format>
        <dc:type
           rdf:resource="http://purl.org/dc/dcmitype/StillImage" />
        <dc:title></dc:title>
      </cc:Work>
    </rdf:RDF>
  </metadata>
  <g
     inkscape:groupmode="layer"
     id="layer5"
     inkscape:label="svg">
    <path
       style="fill:none;stroke:#000000;stroke-width:1px;stroke-linecap:butt;stroke-linejoin:miter;stroke-opacity:1"
       d="M 580,410 C 580,520 506.87358,509.38332 447.00362,527.29756 396.99424,542.26133 360,550 360,620 c 0,72.33258 38.34545,90 100,90 40,0 80,-6.59655 80,-50 0,-30 -10.69574,-42.24388 -26.80246,-35.35844 C 481.04658,638.38573 430,671.91543 430,620 430,580 492.678,584.76317 554.65474,558.73528 593.69452,542.34004 642.20214,515.58538 640,360 c 9.67149,-47.54241 10,-44.56772 10,-90 0,-110 -60,-130 -120,-130 -99.281,0 -140.77875,122.70758 -140,200 0.60542,60.089 34.12607,100.51491 80,110 37.66374,7.78752 82.54363,-0.47082 110,-40 z"
       id="path3139"
       inkscape:connector-curvature="0"
       sodipodi:nodetypes="cssssssscssssc" />
    <path
       style="fill:none;stroke:#000000;stroke-width:1px;stroke-linecap:butt;stroke-linejoin:miter;stroke-opacity:1"
       d="m 490,400 c 48.71103,9.09898 102.14374,-51.07317 110,-100 6.09114,-37.93412 -18.40577,-97.55543 -56.72512,-100.33523 C 492.65712,195.99281 454.95907,269.49209 450,320 c -2.91327,29.67156 10.69268,74.52554 40,80 z"
       id="path3141"
       inkscape:connector-curvature="0"
       sodipodi:nodetypes="aaaaa" />
  </g>
</svg>
