<?xml version="1.0" encoding="UTF-8" standalone="no"?>
<!-- Created with Inkscape (http://www.inkscape.org/) -->

<svg
   xmlns:dc="http://purl.org/dc/elements/1.1/"
   xmlns:cc="http://creativecommons.org/ns#"
   xmlns:rdf="http://www.w3.org/1999/02/22-rdf-syntax-ns#"
   xmlns:svg="http://www.w3.org/2000/svg"
   xmlns="http://www.w3.org/2000/svg"
   xmlns:sodipodi="http://sodipodi.sourceforge.net/DTD/sodipodi-0.dtd"
   xmlns:inkscape="http://www.inkscape.org/namespaces/inkscape"
   width="1000"
   height="1000"
   id="svg3164"
   version="1.1"
   inkscape:version="0.48.3.1 r9886"
   sodipodi:docname="h.svg">
  <defs
     id="defs5498" />
  <sodipodi:namedview
     inkscape:window-height="1121"
     inkscape:window-width="1920"
     inkscape:pageshadow="2"
     inkscape:pageopacity="0.0"
     borderopacity="1.0"
     bordercolor="#666666"
     pagecolor="#ffffff"
     id="base"
     showgrid="false"
     showguides="true"
     inkscape:guide-bbox="true"
     inkscape:zoom="1.2841059"
     inkscape:cx="449.78651"
     inkscape:cy="560.63455"
     inkscape:window-x="0"
     inkscape:window-y="25"
     inkscape:current-layer="layer6"
     inkscape:window-maximized="1">
    <sodipodi:guide
       orientation="horizontal"
       position="200"
       id="guide5596" />
    <sodipodi:guide
       orientation="-0.96602755,0.2584391"
       position="869.86594,881.54722"
       id="guide3185" />
    <inkscape:grid
       type="xygrid"
       id="grid3187" />
  </sodipodi:namedview>
  <metadata
     id="metadata5594">
    <rdf:RDF>
      <cc:Work
         rdf:about="">
        <dc:format>image/svg+xml</dc:format>
        <dc:type
           rdf:resource="http://purl.org/dc/dcmitype/StillImage" />
        <dc:title></dc:title>
      </cc:Work>
    </rdf:RDF>
  </metadata>
  <g
     inkscape:groupmode="layer"
     id="layer6"
     inkscape:label="svg">
    <path
       style="fill:none;stroke:#000000;stroke-width:1px;stroke-linecap:butt;stroke-linejoin:miter;stroke-opacity:1"
       d="m 370,160 0,30 70,0 c 15.0576,0.25613 30,0 24.02488,26.54575 L 355.88965,620.74779 C 351.94425,635.49544 350,640 332.52709,629.31407 337.96702,645.68146 353.70142,660 370,660 c 20,0 32.51582,-3.47892 39.47789,-29.79241 L 458.90263,443.40434 C 467.75662,410.3087 470,350 530,350 c 70.16789,0 54.21271,74.24154 29.92267,114.21865 C 517.73187,535.41964 500,660 570,660 630,660 685.75075,583.69706 664.27542,511.72252 658.21277,550.91393 610,620 586.40023,588.04021 547.96867,535.9946 608.30383,464.32226 621.44406,401.13974 630,360 610,330 570,320 c -21.69305,-5.42326 -80,0 -83.16521,21.05282 L 530,160 z"
       id="path3183"
       inkscape:connector-curvature="0"
       sodipodi:nodetypes="ccccscsscscscsssccc" />
  </g>
</svg>
