<?xml version="1.0" encoding="UTF-8" standalone="no"?>
<!-- Created with Inkscape (http://www.inkscape.org/) -->

<svg
   xmlns:dc="http://purl.org/dc/elements/1.1/"
   xmlns:cc="http://creativecommons.org/ns#"
   xmlns:rdf="http://www.w3.org/1999/02/22-rdf-syntax-ns#"
   xmlns:svg="http://www.w3.org/2000/svg"
   xmlns="http://www.w3.org/2000/svg"
   xmlns:sodipodi="http://sodipodi.sourceforge.net/DTD/sodipodi-0.dtd"
   xmlns:inkscape="http://www.inkscape.org/namespaces/inkscape"
   width="1000"
   height="1000"
   id="svg2986"
   version="1.1"
   inkscape:version="0.48.3.1 r9886"
   sodipodi:docname="i.svg">
  <defs
     id="defs5498" />
  <sodipodi:namedview
     inkscape:window-height="1007"
     inkscape:window-width="1920"
     inkscape:pageshadow="2"
     inkscape:pageopacity="0.0"
     borderopacity="1.0"
     bordercolor="#666666"
     pagecolor="#ffffff"
     id="base"
     showgrid="false"
     showguides="true"
     inkscape:guide-bbox="true"
     inkscape:zoom="0.227"
     inkscape:cx="-166.09065"
     inkscape:cy="162.91813"
     inkscape:window-x="0"
     inkscape:window-y="25"
     inkscape:current-layer="layer2"
     inkscape:window-maximized="1">
    <sodipodi:guide
       orientation="horizontal"
       position="200"
       id="guide5596" />
    <inkscape:grid
       type="xygrid"
       id="grid3007" />
  </sodipodi:namedview>
  <metadata
     id="metadata5594">
    <rdf:RDF>
      <cc:Work
         rdf:about="">
        <dc:format>image/svg+xml</dc:format>
        <dc:type
           rdf:resource="http://purl.org/dc/dcmitype/StillImage" />
        <dc:title></dc:title>
      </cc:Work>
    </rdf:RDF>
  </metadata>
  <g
     inkscape:groupmode="layer"
     id="layer2"
     inkscape:label="svg">
    <path
       style="fill:none;stroke:#000000;stroke-width:1px;stroke-linecap:butt;stroke-linejoin:miter;stroke-opacity:1"
       d="m 435,405 c 10,-60 25,-130 100,-130 49.4585,0 80,30 80,75 0,78.86958 -90,130 -90,210 0,18.12272 0,40 25,40 37.02811,0 60,-60 90,-105 0,65 -35,140 -110,140 -37.10168,0 -70,-18.99966 -70,-75 0,-95 95,-130 95,-210 0,-30 -10.31607,-50 -30,-50 -45,0 -60,55 -90,105 z"
       id="path3005"
       inkscape:connector-curvature="0"
       sodipodi:nodetypes="csssscssssc" />
    <path
       sodipodi:type="arc"
       style="fill:none;stroke:#000000;stroke-width:1px;stroke-linecap:butt;stroke-linejoin:miter;stroke-opacity:1"
       id="path3009"
       sodipodi:cx="615"
       sodipodi:cy="145"
       sodipodi:rx="45"
       sodipodi:ry="45"
       d="m 660,145 a 45,45 0 1 1 -90,0 45,45 0 1 1 90,0 z"
       transform="translate(-5,-10)" />
  </g>
</svg>
