<?xml version="1.0" encoding="UTF-8" standalone="no"?>
<!-- Created with Inkscape (http://www.inkscape.org/) -->

<svg
   xmlns:dc="http://purl.org/dc/elements/1.1/"
   xmlns:cc="http://creativecommons.org/ns#"
   xmlns:rdf="http://www.w3.org/1999/02/22-rdf-syntax-ns#"
   xmlns:svg="http://www.w3.org/2000/svg"
   xmlns="http://www.w3.org/2000/svg"
   xmlns:sodipodi="http://sodipodi.sourceforge.net/DTD/sodipodi-0.dtd"
   xmlns:inkscape="http://www.inkscape.org/namespaces/inkscape"
   width="1000"
   height="1000"
   id="svg3861"
   version="1.1"
   inkscape:version="0.48.3.1 r9886"
   sodipodi:docname="Nowy dokument 9">
  <defs
     id="defs5498" />
  <sodipodi:namedview
     inkscape:window-height="1007"
     inkscape:window-width="1920"
     inkscape:pageshadow="2"
     inkscape:pageopacity="0.0"
     borderopacity="1.0"
     bordercolor="#666666"
     pagecolor="#ffffff"
     id="base"
     showgrid="false"
     showguides="true"
     inkscape:guide-bbox="true"
     inkscape:zoom="0.64205296"
     inkscape:cx="-97.655392"
     inkscape:cy="576.12485"
     inkscape:window-x="0"
     inkscape:window-y="25"
     inkscape:current-layer="layer4"
     inkscape:window-maximized="1">
    <sodipodi:guide
       orientation="horizontal"
       position="200"
       id="guide5596" />
    <inkscape:grid
       type="xygrid"
       id="grid3884" />
  </sodipodi:namedview>
  <metadata
     id="metadata5594">
    <rdf:RDF>
      <cc:Work
         rdf:about="">
        <dc:format>image/svg+xml</dc:format>
        <dc:type
           rdf:resource="http://purl.org/dc/dcmitype/StillImage" />
        <dc:title></dc:title>
      </cc:Work>
    </rdf:RDF>
  </metadata>
  <g
     inkscape:groupmode="layer"
     id="layer4"
     inkscape:label="svg">
    <path
       style="fill:none;stroke:#000000;stroke-width:1px;stroke-linecap:butt;stroke-linejoin:miter;stroke-opacity:1"
       d="m 230,695 c 0,-40 20,-65 55,-65 69.7913,0 45,105 105,105 100,0 95.521,-122.04857 98.98678,-189.84582 C 453.66158,564.48052 418.60236,569.97455 375,570 285.79219,570.0521 275,465.80293 275,405 275,225 410,130 475,130 c 48.09506,0 81.16693,13.59579 91.0793,45.11013 34.79211,-0.24198 36.63984,-43.22731 75.99118,-35.24229 C 598.91648,507.03594 560,780 375,780 310.9055,780 230,759.27041 230,695 z"
       id="path3880"
       inkscape:connector-curvature="0"
       sodipodi:nodetypes="ssscsssccss" />
    <path
       style="fill:none;stroke:#000000;stroke-width:1px;stroke-linecap:butt;stroke-linejoin:miter;stroke-opacity:1"
       d="m 380,530 c -83.57667,0 -10,-355 125,-355 118.43558,0 -20,355 -125,355 z"
       id="path3882"
       inkscape:connector-curvature="0"
       sodipodi:nodetypes="sss" />
  </g>
</svg>
