<?xml version="1.0" encoding="UTF-8" standalone="no"?>
<!-- Created with Inkscape (http://www.inkscape.org/) -->

<svg
   xmlns:dc="http://purl.org/dc/elements/1.1/"
   xmlns:cc="http://creativecommons.org/ns#"
   xmlns:rdf="http://www.w3.org/1999/02/22-rdf-syntax-ns#"
   xmlns:svg="http://www.w3.org/2000/svg"
   xmlns="http://www.w3.org/2000/svg"
   xmlns:sodipodi="http://sodipodi.sourceforge.net/DTD/sodipodi-0.dtd"
   xmlns:inkscape="http://www.inkscape.org/namespaces/inkscape"
   width="1000"
   height="1000"
   id="svg2990"
   version="1.1"
   inkscape:version="0.48.3.1 r9886"
   sodipodi:docname="m.svg">
  <defs
     id="defs5498" />
  <sodipodi:namedview
     inkscape:window-height="1007"
     inkscape:window-width="1920"
     inkscape:pageshadow="2"
     inkscape:pageopacity="0.0"
     borderopacity="1.0"
     bordercolor="#666666"
     pagecolor="#ffffff"
     id="base"
     showgrid="false"
     showguides="true"
     inkscape:guide-bbox="true"
     inkscape:zoom="1"
     inkscape:cx="719.12928"
     inkscape:cy="601.38418"
     inkscape:window-x="0"
     inkscape:window-y="25"
     inkscape:current-layer="layer2"
     inkscape:window-maximized="1">
    <sodipodi:guide
       orientation="horizontal"
       position="200"
       id="guide5596" />
    <sodipodi:guide
       orientation="-0.96,0.28"
       position="955.94714,801.76211"
       id="guide3011" />
    <inkscape:grid
       type="xygrid"
       id="grid3013" />
  </sodipodi:namedview>
  <metadata
     id="metadata5594">
    <rdf:RDF>
      <cc:Work
         rdf:about="">
        <dc:format>image/svg+xml</dc:format>
        <dc:type
           rdf:resource="http://purl.org/dc/dcmitype/StillImage" />
        <dc:title />
      </cc:Work>
    </rdf:RDF>
  </metadata>
  <g
     inkscape:groupmode="layer"
     id="layer2"
     inkscape:label="svg">
    <path
       style="fill:none;stroke:#000000;stroke-width:1px;stroke-linecap:butt;stroke-linejoin:miter;stroke-opacity:1"
       d="m 165,340 c -8.11515,20.83613 20,45 29.68799,26.0959 C 221.17101,314.41979 240,275 290,275 c 22.67745,0 34.42719,19.82107 30,35 l -70,240 c -11.46716,39.31599 47.08333,40 50,30 L 380.20833,305 C 392.29469,263.56106 543.19226,216.76941 516,310 l -70,240 c -11.66667,40 47.08333,40 50,30 L 566,340 C 580.88418,288.96854 645.42475,250.62583 696.20425,255.51312 734.28304,259.17802 715.599,293.49234 705,330 l -90,310 c -13.06452,45 25,90 105,90 35,0 65,-35 70,-70 -20,20 -30,35 -65,35 -50,0 -69.32385,-28.03251 -60,-60 L 770,275 c 10,-34.28571 -30,-55 -65,-55 -49.16441,0 -89,5 -139,55 -20,-35 -41.79354,-55 -86,-55 -45,0 -78.89075,16.20696 -105,40 -18.39533,-37.11016 -46.41517,-40 -75,-40 -55,0 -105.05551,43.1157 -135,120 z"
       id="path3009"
       inkscape:connector-curvature="0"
       sodipodi:nodetypes="ssssssssssssssscsssscscss" />
  </g>
</svg>
