<?xml version="1.0" encoding="UTF-8" standalone="no"?>
<!-- Created with Inkscape (http://www.inkscape.org/) -->

<svg
   xmlns:dc="http://purl.org/dc/elements/1.1/"
   xmlns:cc="http://creativecommons.org/ns#"
   xmlns:rdf="http://www.w3.org/1999/02/22-rdf-syntax-ns#"
   xmlns:svg="http://www.w3.org/2000/svg"
   xmlns="http://www.w3.org/2000/svg"
   xmlns:sodipodi="http://sodipodi.sourceforge.net/DTD/sodipodi-0.dtd"
   xmlns:inkscape="http://www.inkscape.org/namespaces/inkscape"
   width="1000"
   height="1000"
   id="svg2985"
   version="1.1"
   inkscape:version="0.48.3.1 r9886"
   sodipodi:docname="s_podwojne.svg">
  <defs
     id="defs5498" />
  <sodipodi:namedview
     inkscape:window-height="1007"
     inkscape:window-width="1920"
     inkscape:pageshadow="2"
     inkscape:pageopacity="0.0"
     borderopacity="1.0"
     bordercolor="#666666"
     pagecolor="#ffffff"
     id="base"
     showgrid="true"
     showguides="true"
     inkscape:guide-bbox="true"
     inkscape:zoom="2.5682118"
     inkscape:cx="458.04834"
     inkscape:cy="721.80523"
     inkscape:window-x="0"
     inkscape:window-y="25"
     inkscape:current-layer="layer2"
     inkscape:window-maximized="1">
    <sodipodi:guide
       orientation="horizontal"
       position="200"
       id="guide5596" />
    <inkscape:grid
       type="xygrid"
       id="grid3006" />
    <sodipodi:guide
       orientation="-0.9701425,0.24253563"
       position="570,355"
       id="guide3008" />
  </sodipodi:namedview>
  <metadata
     id="metadata5594">
    <rdf:RDF>
      <cc:Work
         rdf:about="">
        <dc:format>image/svg+xml</dc:format>
        <dc:type
           rdf:resource="http://purl.org/dc/dcmitype/StillImage" />
        <dc:title></dc:title>
      </cc:Work>
    </rdf:RDF>
  </metadata>
  <g
     inkscape:groupmode="layer"
     id="layer2"
     inkscape:label="svg">
    <path
       style="fill:none;stroke:#000000;stroke-width:1px;stroke-linecap:butt;stroke-linejoin:miter;stroke-opacity:1"
       d="M 627.50909,207.61201 C 621.47426,222.17467 617.10436,236.13952 615,245 l -95,400 50,0 80,-400 c 3.08112,-15.40559 5,-35 14.09692,-42.35683 C 670,215 675,220 690,220 c 20,0 25,-21.03362 25,-40 0,-15 -10,-30 -35,-30 -20.51082,0 -37.07889,23.80934 -48.58568,48.68868 C 631.75215,165.79379 620,150 575,150 c -52.69459,0 -89.45218,50.58814 -100,95 l -95,400 45,0 95,-400 c 7.73927,-32.58641 15,-55 42.77533,-68.78855 C 567.61164,198.98398 579.7615,220 600,220 c 20,0 20,-5 27.50909,-12.38799 z"
       id="path3004"
       inkscape:connector-curvature="0"
       sodipodi:nodetypes="csccscssscssccscsc" />
  </g>
</svg>
