<?xml version="1.0" encoding="UTF-8" standalone="no"?>
<!-- Created with Inkscape (http://www.inkscape.org/) -->

<svg
   xmlns:dc="http://purl.org/dc/elements/1.1/"
   xmlns:cc="http://creativecommons.org/ns#"
   xmlns:rdf="http://www.w3.org/1999/02/22-rdf-syntax-ns#"
   xmlns:svg="http://www.w3.org/2000/svg"
   xmlns="http://www.w3.org/2000/svg"
   xmlns:sodipodi="http://sodipodi.sourceforge.net/DTD/sodipodi-0.dtd"
   xmlns:inkscape="http://www.inkscape.org/namespaces/inkscape"
   width="1000"
   height="1000"
   id="svg3029"
   version="1.1"
   inkscape:version="0.48.3.1 r9886"
   sodipodi:docname="u.svg">
  <defs
     id="defs5498" />
  <sodipodi:namedview
     inkscape:window-height="1007"
     inkscape:window-width="1920"
     inkscape:pageshadow="2"
     inkscape:pageopacity="0.0"
     borderopacity="1.0"
     bordercolor="#666666"
     pagecolor="#ffffff"
     id="base"
     showgrid="false"
     showguides="true"
     inkscape:guide-bbox="true"
     inkscape:zoom="0.908"
     inkscape:cx="828.0221"
     inkscape:cy="656.98166"
     inkscape:window-x="0"
     inkscape:window-y="25"
     inkscape:current-layer="layer3"
     inkscape:window-maximized="1">
    <sodipodi:guide
       orientation="horizontal"
       position="200"
       id="guide5596" />
    <inkscape:grid
       type="xygrid"
       id="grid3050" />
    <sodipodi:guide
       orientation="0.95911475,-0.28301747"
       position="790,555"
       id="guide3052" />
  </sodipodi:namedview>
  <metadata
     id="metadata5594">
    <rdf:RDF>
      <cc:Work
         rdf:about="">
        <dc:format>image/svg+xml</dc:format>
        <dc:type
           rdf:resource="http://purl.org/dc/dcmitype/StillImage" />
        <dc:title></dc:title>
      </cc:Work>
    </rdf:RDF>
  </metadata>
  <g
     inkscape:groupmode="layer"
     id="layer3"
     inkscape:label="svg">
    <path
       style="fill:none;stroke:#000000;stroke-width:1px;stroke-linecap:butt;stroke-linejoin:miter;stroke-opacity:1"
       d="M 236.70587,354.11402 C 254.91835,295.0544 323.22893,183.85115 385.1562,183.50366 469.9076,183.02809 316.3927,389.99453 317.18062,482.37885 317.73649,547.55499 349.80475,590 400,590 c 70,0 127.55507,-36.96035 145,-120 -2.44493,53.03965 -10,120 60,120 95,0 130,-100 130,-190 -5,25 -42.72581,140 -105,140 -55,0 -44.5951,-45.53883 -30,-95 l 90,-305 -80,0 -90,305 c -8.85246,30 -21.42165,100 -100,100 -30,0 -33.50471,-46.37802 -21.56113,-85.09901 C 420,390 545,140 395,140 277.31315,140 230.23359,311.22928 236.70587,354.11402 z"
       id="path3048"
       inkscape:connector-curvature="0"
       sodipodi:nodetypes="cssscscssccssssc" />
  </g>
</svg>
