<?xml version="1.0" encoding="UTF-8" standalone="no"?>
<!-- Created with Inkscape (http://www.inkscape.org/) -->

<svg
   xmlns:dc="http://purl.org/dc/elements/1.1/"
   xmlns:cc="http://creativecommons.org/ns#"
   xmlns:rdf="http://www.w3.org/1999/02/22-rdf-syntax-ns#"
   xmlns:svg="http://www.w3.org/2000/svg"
   xmlns="http://www.w3.org/2000/svg"
   xmlns:sodipodi="http://sodipodi.sourceforge.net/DTD/sodipodi-0.dtd"
   xmlns:inkscape="http://www.inkscape.org/namespaces/inkscape"
   width="1000"
   height="1000"
   id="svg2987"
   version="1.1"
   inkscape:version="0.48.3.1 r9886"
   sodipodi:docname="v.svg">
  <defs
     id="defs5498" />
  <sodipodi:namedview
     inkscape:window-height="1121"
     inkscape:window-width="1920"
     inkscape:pageshadow="2"
     inkscape:pageopacity="0.0"
     borderopacity="1.0"
     bordercolor="#666666"
     pagecolor="#ffffff"
     id="base"
     showgrid="false"
     showguides="true"
     inkscape:guide-bbox="true"
     inkscape:zoom="0.908"
     inkscape:cx="331.5283"
     inkscape:cy="397.80308"
     inkscape:window-x="0"
     inkscape:window-y="25"
     inkscape:current-layer="layer2"
     inkscape:window-maximized="1">
    <sodipodi:guide
       orientation="horizontal"
       position="200"
       id="guide5596" />
    <inkscape:grid
       type="xygrid"
       id="grid3034" />
  </sodipodi:namedview>
  <metadata
     id="metadata5594">
    <rdf:RDF>
      <cc:Work
         rdf:about="">
        <dc:format>image/svg+xml</dc:format>
        <dc:type
           rdf:resource="http://purl.org/dc/dcmitype/StillImage" />
        <dc:title />
      </cc:Work>
    </rdf:RDF>
  </metadata>
  <g
     inkscape:groupmode="layer"
     id="layer2"
     inkscape:label="svg">
    <path
       style="fill:none;stroke:#000000;stroke-width:1px;stroke-linecap:butt;stroke-linejoin:miter;stroke-opacity:1"
       d="M 238.98678,495.59472 C 415.8686,277.30322 388.30905,295.61676 416.90749,295.64758 472.12128,295.70708 340.26477,510.96191 322.97797,625.55066 310.81515,706.17412 338.61567,800 470.26432,800 569.75182,800 719.26284,739.14978 755.50661,343.61233 763.70967,254.09021 715.16353,201.65377 660,200 c -53.69431,-1.60972 -79.76458,15.13127 -80.90749,86.45815 -0.66807,41.69251 54.16796,52.16818 115.20705,60.19383 7.85067,176.8109 -134.76722,396.09065 -219.62996,396.74009 -83.73876,0.64084 -49.23657,-77.77933 55.06609,-400.88105 C 547.95535,286.07137 520.20126,196.41158 420,200 266.77008,205.48749 229.41211,461.02656 238.98678,495.59472 z"
       id="path3006"
       inkscape:connector-curvature="0"
       sodipodi:nodetypes="csssssscsssc" />
  </g>
</svg>
