<?xml version="1.0" encoding="UTF-8" standalone="no"?>
<!-- Created with Inkscape (http://www.inkscape.org/) -->

<svg
   xmlns:dc="http://purl.org/dc/elements/1.1/"
   xmlns:cc="http://creativecommons.org/ns#"
   xmlns:rdf="http://www.w3.org/1999/02/22-rdf-syntax-ns#"
   xmlns:svg="http://www.w3.org/2000/svg"
   xmlns="http://www.w3.org/2000/svg"
   xmlns:sodipodi="http://sodipodi.sourceforge.net/DTD/sodipodi-0.dtd"
   xmlns:inkscape="http://www.inkscape.org/namespaces/inkscape"
   width="1000"
   height="1000"
   id="svg3115"
   version="1.1"
   inkscape:version="0.48.3.1 r9886"
   sodipodi:docname="y.svg">
  <defs
     id="defs5498" />
  <sodipodi:namedview
     inkscape:window-height="1007"
     inkscape:window-width="1920"
     inkscape:pageshadow="2"
     inkscape:pageopacity="0.0"
     borderopacity="1.0"
     bordercolor="#666666"
     pagecolor="#ffffff"
     id="base"
     showgrid="false"
     showguides="true"
     inkscape:guide-bbox="true"
     inkscape:zoom="0.908"
     inkscape:cx="128.73474"
     inkscape:cy="596.91932"
     inkscape:window-x="0"
     inkscape:window-y="25"
     inkscape:current-layer="layer5"
     inkscape:window-maximized="1">
    <sodipodi:guide
       orientation="horizontal"
       position="200"
       id="guide5596" />
    <inkscape:grid
       type="xygrid"
       id="grid3136" />
    <sodipodi:guide
       orientation="0.96827732,-0.24987802"
       position="575,580"
       id="guide3138" />
  </sodipodi:namedview>
  <metadata
     id="metadata5594">
    <rdf:RDF>
      <cc:Work
         rdf:about="">
        <dc:format>image/svg+xml</dc:format>
        <dc:type
           rdf:resource="http://purl.org/dc/dcmitype/StillImage" />
        <dc:title></dc:title>
      </cc:Work>
    </rdf:RDF>
  </metadata>
  <g
     inkscape:groupmode="layer"
     id="layer5"
     inkscape:label="svg"
     style="display:inline">
    <path
       style="fill:none;stroke:#000000;stroke-width:1px;stroke-linecap:butt;stroke-linejoin:miter;stroke-opacity:1"
       d="M 337.97835,286.6632 C 360,220 390,150 440,150 c 105,0 -40,150 -40,255 0,65 50,85 70,85 50,0 73.54839,-20 98.54839,-45 C 538.54839,580 500,665 445,665 c -35.57504,0 -55,-20 -55,-35 15,5 35,-15 35,-35 0,-20 -20,-35 -50,-35 -30,0 -50,21.58842 -50,60 0,35 39.2608,60 110,60 125,0 168.70968,-100 210,-260 l 80,-310 -70,0 -80,310 c -3.95092,15.30981 -50,50 -85,50 -85,0 38.98853,-210.43433 40,-280 0.8723,-59.99366 -35,-80 -70,-80 -90,0 -120.94844,95.10961 -122.02165,176.6632 z"
       id="path3134"
       inkscape:connector-curvature="0"
       sodipodi:nodetypes="cssscsczzsssccssssc" />
  </g>
</svg>
