<?xml version="1.0" encoding="UTF-8" standalone="no"?>
<!-- Created with Inkscape (http://www.inkscape.org/) -->

<svg
   xmlns:dc="http://purl.org/dc/elements/1.1/"
   xmlns:cc="http://creativecommons.org/ns#"
   xmlns:rdf="http://www.w3.org/1999/02/22-rdf-syntax-ns#"
   xmlns:svg="http://www.w3.org/2000/svg"
   xmlns="http://www.w3.org/2000/svg"
   xmlns:sodipodi="http://sodipodi.sourceforge.net/DTD/sodipodi-0.dtd"
   xmlns:inkscape="http://www.inkscape.org/namespaces/inkscape"
   width="1000"
   height="1000"
   id="svg2985"
   version="1.1"
   inkscape:version="0.48.3.1 r9886"
   sodipodi:docname="z.svg">
  <defs
     id="defs5498" />
  <sodipodi:namedview
     inkscape:window-height="1121"
     inkscape:window-width="1920"
     inkscape:pageshadow="2"
     inkscape:pageopacity="0.0"
     borderopacity="1.0"
     bordercolor="#666666"
     pagecolor="#ffffff"
     id="base"
     showgrid="false"
     showguides="true"
     inkscape:guide-bbox="true"
     inkscape:zoom="0.64205296"
     inkscape:cx="493.33718"
     inkscape:cy="408.56593"
     inkscape:window-x="0"
     inkscape:window-y="25"
     inkscape:current-layer="layer2"
     inkscape:window-maximized="1">
    <sodipodi:guide
       orientation="horizontal"
       position="200"
       id="guide5596" />
    <inkscape:grid
       type="xygrid"
       id="grid3006" />
  </sodipodi:namedview>
  <metadata
     id="metadata5594">
    <rdf:RDF>
      <cc:Work
         rdf:about="">
        <dc:format>image/svg+xml</dc:format>
        <dc:type
           rdf:resource="http://purl.org/dc/dcmitype/StillImage" />
        <dc:title />
      </cc:Work>
    </rdf:RDF>
  </metadata>
  <g
     inkscape:groupmode="layer"
     id="layer2"
     inkscape:label="svg">
    <path
       style="fill:none;stroke:#000000;stroke-width:2.72695899px;stroke-linecap:butt;stroke-linejoin:miter;stroke-opacity:1"
       d="m 716.51217,472.35517 c -5.98466,129.19124 -13.6348,327.23509 -218.15673,327.23509 -62.34374,0 -112.96022,-42.84787 -179.05429,-146.01846 -42.22633,1.25254 -50.3755,41.39703 -39.04236,84.09126 12.08334,45.52044 -12.25664,64.30894 -54.59925,61.9272 -40.3479,-2.09728 -48.02353,-14.59412 -41.50504,-91.9598 3.97498,-47.1777 20.01563,-64.91084 51.05539,-96.10428 L 582.0863,299.18727 C 402.59756,166.37967 347.72498,309.78382 278.96778,391.198 261.5657,411.80353 228.64264,422.27667 218.69196,401.29806 219.244,367.65862 346.48329,109.59492 471.08585,90.580897 535.23208,80.792335 603.11316,128.87907 646.65637,245.1286 c 45.04895,-27.59078 33.5246,-53.67858 23.82061,-86.47875 -7.84323,-26.51062 -10.8002,-70.690867 46.03519,-68.068953 36.93216,-3.206413 55.85758,27.647463 48.77292,88.475993 2.23487,32.87515 -12.49035,55.57422 -30.03258,76.58311 L 365.85165,593.50662 C 520.51801,708.8327 584.64913,695.12416 716.51217,472.35517 z"
       id="path3004"
       inkscape:connector-curvature="0"
       sodipodi:nodetypes="cscscsccscscsccccc" />
  </g>
</svg>
