<?xml version="1.0" encoding="UTF-8" standalone="no"?>
<!-- Created with Inkscape (http://www.inkscape.org/) -->

<svg
   xmlns:dc="http://purl.org/dc/elements/1.1/"
   xmlns:cc="http://creativecommons.org/ns#"
   xmlns:rdf="http://www.w3.org/1999/02/22-rdf-syntax-ns#"
   xmlns:svg="http://www.w3.org/2000/svg"
   xmlns="http://www.w3.org/2000/svg"
   xmlns:sodipodi="http://sodipodi.sourceforge.net/DTD/sodipodi-0.dtd"
   xmlns:inkscape="http://www.inkscape.org/namespaces/inkscape"
   width="1000"
   height="1000"
   id="svg2987"
   version="1.1"
   inkscape:version="0.48.3.1 r9886"
   sodipodi:docname="ń.svg">
  <defs
     id="defs5498" />
  <sodipodi:namedview
     inkscape:window-height="1007"
     inkscape:window-width="1920"
     inkscape:pageshadow="2"
     inkscape:pageopacity="0.0"
     borderopacity="1.0"
     bordercolor="#666666"
     pagecolor="#ffffff"
     id="base"
     showgrid="false"
     showguides="true"
     inkscape:guide-bbox="true"
     inkscape:zoom="1.816"
     inkscape:cx="363.82312"
     inkscape:cy="593.49185"
     inkscape:window-x="0"
     inkscape:window-y="25"
     inkscape:current-layer="layer2"
     inkscape:window-maximized="1">
    <sodipodi:guide
       orientation="horizontal"
       position="200"
       id="guide5596" />
    <inkscape:grid
       type="xygrid"
       id="grid3008" />
  </sodipodi:namedview>
  <metadata
     id="metadata5594">
    <rdf:RDF>
      <cc:Work
         rdf:about="">
        <dc:format>image/svg+xml</dc:format>
        <dc:type
           rdf:resource="http://purl.org/dc/dcmitype/StillImage" />
        <dc:title></dc:title>
      </cc:Work>
    </rdf:RDF>
  </metadata>
  <g
     inkscape:groupmode="layer"
     id="layer2"
     inkscape:label="svg">
    <path
       style="fill:none;stroke:#000000;stroke-width:1px;stroke-linecap:butt;stroke-linejoin:miter;stroke-opacity:1"
       d="m 290,715 105,0 c 0,0 125,-450 225,-450 20,0 31.89057,7.67917 5.55066,89.62555 L 546.25551,601.32159 C 528.82337,655.55493 560,715 635,715 760,715 775.92929,585.92573 773.67842,493.94273 732.67108,560.90113 725,665 650,665 630.67123,665 622.68197,622.58773 632.15859,590.30837 642.49496,555.10054 645.84253,550.00708 707.04846,319.38326 721.99885,263.05022 685,225 615,225 545,225 495.60662,334.03054 455.94714,417.95155 468.69134,308.94429 475.3304,225 395,225 c -75.83925,0 -130.12782,138.90089 -165.92511,215.52863 -6.38313,13.66374 29.80941,27.58177 34.9011,16.80498 33.40746,-70.70833 73.19189,-169.69481 119.28392,-166.58471 38.88923,2.62409 23.31059,51.37809 13.21586,85.90308 z"
       id="path3006"
       inkscape:connector-curvature="0"
       sodipodi:nodetypes="ccsssscsssscsssscc" />
  </g>
</svg>
